<svg width="187" height="51" viewBox="0 0 187 51" fill="none" xmlns="http://www.w3.org/2000/svg">
<path d="M86.246 15.0575L90.1651 18.2988C90.6562 18.7113 90.9607 19.0256 91.0785 19.2417C91.216 19.4578 91.2848 19.6641 91.2848 19.8605C91.2848 20.332 90.9803 20.9704 90.3713 21.7759C89.7034 22.6009 89.1141 23.0135 88.6033 23.0135C88.1712 23.0135 87.572 22.7286 86.8059 22.1589L86.5112 21.9527C86.0594 21.5794 85.362 20.9312 84.4191 20.0079C83.4761 19.0649 82.7591 18.397 82.268 18.0041V20.2731C82.268 20.7249 82.2484 21.0687 82.2091 21.3044C82.1894 21.5205 82.101 21.7759 81.9439 22.0705C81.6885 22.5813 80.9322 22.8367 79.6749 22.8367C78.4373 22.8367 77.681 22.5715 77.406 22.0411C77.2685 21.7464 77.1801 21.491 77.1408 21.2749C77.1212 21.0392 77.1113 20.6954 77.1113 20.2436V2.59307C77.1113 2.14124 77.1212 1.80729 77.1408 1.5912C77.1801 1.35547 77.2685 1.09027 77.406 0.7956C77.681 0.2652 78.4472 0 79.7044 0C80.6473 0 81.3152 0.166978 81.7081 0.500934C82.0421 0.775956 82.2189 1.20813 82.2385 1.79747C82.2582 1.97427 82.268 2.24929 82.268 2.62253V11.9635C82.6216 11.6688 83.152 11.1679 83.8592 10.4607C84.586 9.75347 85.1263 9.25253 85.4799 8.95787L85.8335 8.72213C86.521 8.19173 87.1104 7.92653 87.6015 7.92653C88.0926 7.92653 88.6524 8.32924 89.2811 9.13467C89.9293 9.92044 90.2535 10.5392 90.2535 10.9911C90.2535 11.4429 89.89 11.9733 89.1632 12.5823L86.246 15.0575Z" fill="#00BBAE"/>
<path d="M92.9094 9.9008C92.9094 9.44898 92.9192 9.11502 92.9388 8.89893C92.9781 8.6632 93.0665 8.398 93.204 8.10333C93.4791 7.59258 94.2452 7.3372 95.5024 7.3372C96.4454 7.3372 97.1133 7.50418 97.5062 7.83813C97.8401 8.11316 98.0169 8.53551 98.0366 9.1052C98.0562 9.30164 98.066 9.58649 98.066 9.95973V20.2731C98.066 20.7249 98.0464 21.0687 98.0071 21.3044C97.9875 21.5205 97.8991 21.7759 97.7419 22.0705C97.4865 22.5813 96.7302 22.8367 95.473 22.8367C94.2354 22.8367 93.4791 22.5715 93.204 22.0411C93.0665 21.7464 92.9781 21.491 92.9388 21.2749C92.9192 21.0588 92.9094 20.7151 92.9094 20.2436V9.9008ZM97.7419 4.44947C97.6044 4.72449 97.349 4.92093 96.9758 5.0388C96.6025 5.15667 96.1016 5.2156 95.473 5.2156C94.864 5.2156 94.3729 5.15667 93.9996 5.0388C93.6264 4.92093 93.3612 4.71467 93.204 4.42C93.0665 4.12533 92.9781 3.86996 92.9388 3.65387C92.9192 3.41813 92.9094 3.07436 92.9094 2.62253C92.9094 2.17071 92.9192 1.83676 92.9388 1.62067C92.9781 1.38493 93.0665 1.12956 93.204 0.854533C93.4791 0.324133 94.2452 0.0589326 95.5024 0.0589326C96.74 0.0589326 97.4865 0.324133 97.7419 0.854533C97.8991 1.1492 97.9875 1.4144 98.0071 1.65013C98.0464 1.86622 98.066 2.20018 98.066 2.652C98.066 3.10382 98.0464 3.4476 98.0071 3.68333C97.9875 3.89942 97.8991 4.1548 97.7419 4.44947Z" fill="#00BBAE"/>
<path d="M109.054 7.30773C111.018 7.30773 112.649 8.06404 113.945 9.57667C115.261 11.0696 115.919 12.8966 115.919 15.0575V20.2436C115.919 20.6954 115.9 21.0392 115.86 21.2749C115.841 21.491 115.762 21.7366 115.625 22.0116C115.35 22.542 114.584 22.8072 113.326 22.8072C111.932 22.8072 111.126 22.4438 110.91 21.7169C110.792 21.383 110.733 20.882 110.733 20.2141V15.028C110.733 14.2226 110.498 13.594 110.026 13.1421C109.574 12.6903 108.955 12.4644 108.17 12.4644C107.404 12.4644 106.775 12.7001 106.284 13.1716C105.812 13.6431 105.577 14.2619 105.577 15.028V20.2436C105.577 20.6954 105.557 21.0392 105.518 21.2749C105.498 21.491 105.41 21.7366 105.252 22.0116C104.997 22.542 104.241 22.8072 102.984 22.8072C101.746 22.8072 100.99 22.542 100.715 22.0116C100.577 21.7169 100.489 21.4616 100.449 21.2455C100.43 21.0097 100.42 20.666 100.42 20.2141V9.78293C100.42 9.35075 100.43 9.02662 100.449 8.81053C100.489 8.5748 100.587 8.31942 100.744 8.0444C101.019 7.55329 101.775 7.30773 103.013 7.30773C104.211 7.30773 104.948 7.53365 105.223 7.98547C105.419 8.31942 105.518 8.72213 105.518 9.1936C105.596 9.05609 105.773 8.85964 106.048 8.60427C106.323 8.34889 106.588 8.14262 106.844 7.98547C107.512 7.53365 108.248 7.30773 109.054 7.30773Z" fill="#00BBAE"/>
<path d="M128.692 0.854533C128.849 0.559866 129.114 0.3536 129.487 0.235734C129.86 0.117866 130.352 0.0589326 130.961 0.0589326C131.589 0.0589326 132.09 0.117866 132.463 0.235734C132.837 0.3536 133.092 0.559866 133.229 0.854533C133.387 1.1492 133.475 1.4144 133.495 1.65013C133.534 1.86622 133.554 2.20018 133.554 2.652V20.2436C133.554 20.6954 133.534 21.0392 133.495 21.2749C133.475 21.491 133.387 21.7366 133.229 22.0116C132.935 22.542 132.1 22.8072 130.725 22.8072C129.369 22.8072 128.613 22.3259 128.456 21.3633C127.631 22.3063 126.482 22.7777 125.008 22.7777C123.24 22.7777 121.629 22.0116 120.176 20.4793C118.722 18.9274 117.995 17.13 117.995 15.0869C117.995 13.0243 118.722 11.217 120.176 9.66507C121.649 8.11316 123.26 7.3372 125.008 7.3372C126.462 7.3372 127.591 7.82831 128.397 8.81053V2.62253C128.397 2.17071 128.407 1.83676 128.426 1.62067C128.466 1.38493 128.554 1.12956 128.692 0.854533ZM123.918 16.8549C124.429 17.3853 125.048 17.6505 125.774 17.6505C126.501 17.6505 127.1 17.3853 127.572 16.8549C128.063 16.3245 128.309 15.745 128.309 15.1164C128.309 14.4681 128.073 13.869 127.601 13.3189C127.149 12.7689 126.531 12.4939 125.745 12.4939C124.959 12.4939 124.331 12.7689 123.859 13.3189C123.388 13.8493 123.152 14.4387 123.152 15.0869C123.152 15.7352 123.407 16.3245 123.918 16.8549Z" fill="#00BBAE"/>
<path d="M150.87 13.2305C150.87 14.4288 150.565 15.3227 149.956 15.912C149.367 16.4817 148.709 16.7665 147.982 16.7665H140.999C140.999 17.3166 141.323 17.7782 141.971 18.1515C142.619 18.5247 143.267 18.7113 143.916 18.7113C145.055 18.7113 145.949 18.5935 146.597 18.3577L146.921 18.2399C147.393 18.0238 147.786 17.9157 148.1 17.9157C148.729 17.9157 149.269 18.3577 149.721 19.2417C149.976 19.7721 150.104 20.224 150.104 20.5972C150.104 22.3456 148.012 23.2197 143.827 23.2197C142.374 23.2197 141.077 22.9742 139.938 22.4831C138.818 21.9723 137.944 21.3044 137.315 20.4793C136.078 18.8881 135.459 17.1103 135.459 15.1459C135.459 12.6707 136.254 10.6964 137.846 9.22307C139.456 7.73009 141.46 6.9836 143.857 6.9836C146.587 6.9836 148.591 7.94618 149.868 9.87133C150.536 10.8928 150.87 12.0126 150.87 13.2305ZM144.652 14.0851C145.399 14.0851 145.772 13.7708 145.772 13.1421C145.772 12.6903 145.595 12.3269 145.242 12.0519C144.908 11.7768 144.417 11.6393 143.768 11.6393C143.14 11.6393 142.511 11.9045 141.883 12.4349C141.254 12.9457 140.94 13.4957 140.94 14.0851H144.652Z" fill="#00BBAE"/>
<path d="M163.194 0.854533C163.351 0.559866 163.616 0.3536 163.99 0.235734C164.363 0.117866 164.854 0.0589326 165.463 0.0589326C166.092 0.0589326 166.593 0.117866 166.966 0.235734C167.339 0.3536 167.594 0.559866 167.732 0.854533C167.889 1.1492 167.977 1.4144 167.997 1.65013C168.036 1.86622 168.056 2.20018 168.056 2.652V20.2436C168.056 20.6954 168.036 21.0392 167.997 21.2749C167.977 21.491 167.889 21.7366 167.732 22.0116C167.437 22.542 166.602 22.8072 165.227 22.8072C163.872 22.8072 163.115 22.3259 162.958 21.3633C162.133 22.3063 160.984 22.7777 159.511 22.7777C157.743 22.7777 156.132 22.0116 154.678 20.4793C153.224 18.9274 152.498 17.13 152.498 15.0869C152.498 13.0243 153.224 11.217 154.678 9.66507C156.152 8.11316 157.762 7.3372 159.511 7.3372C160.964 7.3372 162.094 7.82831 162.899 8.81053V2.62253C162.899 2.17071 162.909 1.83676 162.929 1.62067C162.968 1.38493 163.057 1.12956 163.194 0.854533ZM158.42 16.8549C158.931 17.3853 159.55 17.6505 160.277 17.6505C161.004 17.6505 161.603 17.3853 162.074 16.8549C162.565 16.3245 162.811 15.745 162.811 15.1164C162.811 14.4681 162.575 13.869 162.104 13.3189C161.652 12.7689 161.033 12.4939 160.247 12.4939C159.462 12.4939 158.833 12.7689 158.362 13.3189C157.89 13.8493 157.654 14.4387 157.654 15.0869C157.654 15.7352 157.91 16.3245 158.42 16.8549Z" fill="#00BBAE"/>
<path d="M169.961 15.0869C169.961 12.7296 170.786 10.7848 172.436 9.25253C174.087 7.72027 175.972 6.95413 178.094 6.95413C180.216 6.95413 182.092 7.72027 183.722 9.25253C185.353 10.7652 186.168 12.7001 186.168 15.0575C186.168 16.688 185.746 18.1416 184.901 19.4185C184.056 20.6758 183.025 21.6089 181.807 22.2179C180.609 22.8072 179.361 23.1019 178.065 23.1019C176.768 23.1019 175.511 22.7876 174.293 22.1589C173.075 21.5107 172.044 20.5677 171.199 19.3301C170.374 18.0729 169.961 16.6585 169.961 15.0869ZM176.12 17.2085C176.748 17.68 177.387 17.9157 178.035 17.9157C178.683 17.9157 179.332 17.6702 179.98 17.1791C180.628 16.688 180.952 15.9611 180.952 14.9985C180.952 14.036 180.648 13.3189 180.039 12.8475C179.43 12.376 178.772 12.1403 178.065 12.1403C177.357 12.1403 176.699 12.3858 176.09 12.8769C175.481 13.368 175.177 14.0949 175.177 15.0575C175.177 16.0004 175.491 16.7174 176.12 17.2085Z" fill="#00BBAE"/>
<path d="M78.2544 40.7867C78.1104 40.7867 77.9984 40.7587 77.9184 40.7027C77.8464 40.6547 77.7984 40.5827 77.7744 40.4867C77.7504 40.3827 77.7384 40.2707 77.7384 40.1507V33.0227C77.7384 32.9027 77.7504 32.7987 77.7744 32.7107C77.8064 32.6147 77.8584 32.5427 77.9304 32.4947C78.0104 32.4387 78.1224 32.4107 78.2664 32.4107H81.6144C82.0624 32.4107 82.4544 32.5107 82.7904 32.7107C83.1344 32.9107 83.4024 33.1827 83.5944 33.5267C83.7864 33.8707 83.8784 34.2467 83.8704 34.6547C83.8784 34.8627 83.8544 35.0667 83.7984 35.2667C83.7424 35.4667 83.6584 35.6547 83.5464 35.8307C83.4424 35.9987 83.3104 36.1387 83.1504 36.2507C83.3664 36.3867 83.5504 36.5627 83.7024 36.7787C83.8544 36.9947 83.9704 37.2347 84.0504 37.4987C84.1304 37.7627 84.1704 38.0387 84.1704 38.3267C84.1624 38.6707 84.0984 38.9947 83.9784 39.2987C83.8584 39.5947 83.6864 39.8547 83.4624 40.0787C83.2384 40.3027 82.9784 40.4787 82.6824 40.6067C82.3864 40.7267 82.0704 40.7867 81.7344 40.7867H78.2544ZM78.8184 39.7547H81.6144C81.9264 39.7547 82.1944 39.6947 82.4184 39.5747C82.6424 39.4547 82.8144 39.2787 82.9344 39.0467C83.0544 38.8147 83.1144 38.5307 83.1144 38.1947C83.1144 37.9067 83.0744 37.6747 82.9944 37.4987C82.9144 37.3227 82.8064 37.1907 82.6704 37.1027C82.5344 37.0067 82.3864 36.9387 82.2264 36.8987C82.0744 36.8587 81.9224 36.8387 81.7704 36.8387C81.6264 36.8307 81.4944 36.8267 81.3744 36.8267H80.6424C80.4824 36.8267 80.3664 36.7867 80.2944 36.7067C80.2224 36.6267 80.1864 36.4987 80.1864 36.3227C80.1864 36.1547 80.2224 36.0347 80.2944 35.9627C80.3744 35.8907 80.4944 35.8547 80.6544 35.8547H81.3864C81.5144 35.8547 81.6584 35.8507 81.8184 35.8427C81.9784 35.8347 82.1344 35.8027 82.2864 35.7467C82.4464 35.6907 82.5744 35.5867 82.6704 35.4347C82.7744 35.2747 82.8264 35.0507 82.8264 34.7627C82.8264 34.3147 82.7064 33.9867 82.4664 33.7787C82.2264 33.5627 81.8304 33.4547 81.2784 33.4547H78.8184V39.7547ZM88.2108 40.8467C87.7308 40.8467 87.3028 40.7667 86.9268 40.6067C86.5508 40.4467 86.2308 40.2307 85.9668 39.9587C85.7108 39.6787 85.5148 39.3587 85.3788 38.9987C85.2428 38.6387 85.1748 38.2507 85.1748 37.8347C85.1748 37.2827 85.3028 36.7907 85.5588 36.3587C85.8148 35.9267 86.1668 35.5867 86.6148 35.3387C87.0708 35.0827 87.5908 34.9547 88.1748 34.9547C88.5748 34.9547 88.9308 35.0187 89.2428 35.1467C89.5628 35.2667 89.8348 35.4307 90.0588 35.6387C90.2828 35.8467 90.4548 36.0787 90.5748 36.3347C90.6948 36.5907 90.7548 36.8467 90.7548 37.1027C90.7548 37.5107 90.6588 37.7987 90.4668 37.9667C90.2748 38.1267 90.0388 38.2067 89.7588 38.2067H86.2908C86.2828 38.5587 86.3748 38.8627 86.5668 39.1187C86.7668 39.3667 87.0148 39.5587 87.3108 39.6947C87.6148 39.8307 87.9188 39.8987 88.2228 39.8987C88.4468 39.8987 88.6388 39.8867 88.7988 39.8627C88.9588 39.8387 89.0988 39.8067 89.2188 39.7667C89.3388 39.7267 89.4428 39.6867 89.5308 39.6467C89.6188 39.6067 89.6948 39.5667 89.7588 39.5267C89.8308 39.4867 89.8988 39.4587 89.9628 39.4427C90.0348 39.4267 90.1028 39.4347 90.1668 39.4667C90.2388 39.4907 90.2948 39.5427 90.3348 39.6227C90.3828 39.6867 90.4148 39.7467 90.4308 39.8027C90.4468 39.8587 90.4548 39.9187 90.4548 39.9827C90.4548 40.0947 90.3588 40.2187 90.1668 40.3547C89.9748 40.4907 89.7068 40.6067 89.3628 40.7027C89.0268 40.7987 88.6428 40.8467 88.2108 40.8467ZM86.2908 37.4987H89.3028C89.4548 37.4987 89.5668 37.4787 89.6388 37.4387C89.7188 37.3987 89.7588 37.2907 89.7588 37.1147C89.7588 36.8907 89.6908 36.6907 89.5548 36.5147C89.4188 36.3307 89.2308 36.1827 88.9908 36.0707C88.7588 35.9587 88.4908 35.9027 88.1868 35.9027C87.8348 35.9027 87.5108 35.9747 87.2148 36.1187C86.9268 36.2547 86.6988 36.4427 86.5308 36.6827C86.3628 36.9227 86.2828 37.1947 86.2908 37.4987ZM93.8872 40.8467C93.6952 40.8467 93.4952 40.8267 93.2872 40.7867C93.0792 40.7467 92.8752 40.6907 92.6752 40.6187C92.4832 40.5387 92.3112 40.4467 92.1592 40.3427C92.0152 40.2387 91.9072 40.1227 91.8352 39.9947C91.7952 39.9147 91.7712 39.8427 91.7632 39.7787C91.7552 39.7067 91.7672 39.6387 91.7992 39.5747C91.8312 39.5107 91.8792 39.4467 91.9432 39.3827C92.0232 39.2867 92.1032 39.2427 92.1832 39.2507C92.2632 39.2507 92.3632 39.3027 92.4832 39.4067C92.5712 39.4627 92.6752 39.5267 92.7952 39.5987C92.9152 39.6627 93.0392 39.7227 93.1672 39.7787C93.2952 39.8267 93.4232 39.8707 93.5512 39.9107C93.6872 39.9427 93.8192 39.9587 93.9472 39.9587C94.3152 39.9587 94.6112 39.8907 94.8352 39.7547C95.0592 39.6107 95.1712 39.4227 95.1712 39.1907C95.1712 39.0547 95.1432 38.9387 95.0872 38.8427C95.0312 38.7467 94.9552 38.6667 94.8592 38.6027C94.7632 38.5307 94.6552 38.4707 94.5352 38.4227C94.4152 38.3747 94.2792 38.3307 94.1272 38.2907C93.9832 38.2427 93.8392 38.1987 93.6952 38.1587C93.4792 38.1027 93.2672 38.0387 93.0592 37.9667C92.8512 37.8947 92.6632 37.8027 92.4952 37.6907C92.3272 37.5707 92.1912 37.4227 92.0872 37.2467C91.9832 37.0627 91.9312 36.8307 91.9312 36.5507C91.9312 36.2227 92.0152 35.9387 92.1832 35.6987C92.3512 35.4587 92.5872 35.2747 92.8912 35.1467C93.1952 35.0107 93.5512 34.9427 93.9592 34.9427C94.1352 34.9427 94.2992 34.9547 94.4512 34.9787C94.6032 35.0027 94.7472 35.0427 94.8832 35.0987C95.0272 35.1467 95.1632 35.2067 95.2912 35.2787C95.4192 35.3427 95.5432 35.4227 95.6632 35.5187C95.8072 35.6147 95.8832 35.7187 95.8912 35.8307C95.8992 35.9427 95.8552 36.0587 95.7592 36.1787C95.6872 36.2827 95.6072 36.3507 95.5192 36.3827C95.4312 36.4067 95.3432 36.3827 95.2552 36.3107C95.1272 36.2147 94.9912 36.1307 94.8472 36.0587C94.7032 35.9867 94.5552 35.9267 94.4032 35.8787C94.2512 35.8307 94.0952 35.8067 93.9352 35.8067C93.7352 35.8067 93.5552 35.8387 93.3952 35.9027C93.2432 35.9587 93.1232 36.0467 93.0352 36.1667C92.9552 36.2787 92.9152 36.4067 92.9152 36.5507C92.9152 36.6787 92.9472 36.7827 93.0112 36.8627C93.0832 36.9427 93.1712 37.0107 93.2752 37.0667C93.3872 37.1227 93.5152 37.1747 93.6592 37.2227C93.8112 37.2627 93.9672 37.3027 94.1272 37.3427C94.3592 37.3987 94.5952 37.4667 94.8352 37.5467C95.0832 37.6187 95.3032 37.7187 95.4952 37.8467C95.6952 37.9667 95.8552 38.1307 95.9752 38.3387C96.1032 38.5387 96.1672 38.8067 96.1672 39.1427C96.1672 39.6707 95.9592 40.0867 95.5432 40.3907C95.1272 40.6947 94.5752 40.8467 93.8872 40.8467ZM100.012 40.7867C99.6355 40.7867 99.3155 40.7507 99.0515 40.6787C98.7955 40.6067 98.5835 40.4947 98.4155 40.3427C98.2475 40.1907 98.1275 39.9947 98.0555 39.7547C97.9835 39.5067 97.9475 39.2027 97.9475 38.8427V33.5387C97.9475 33.4267 97.9595 33.3307 97.9835 33.2507C98.0075 33.1707 98.0555 33.1107 98.1275 33.0707C98.1995 33.0227 98.3115 32.9987 98.4635 32.9987C98.6155 32.9987 98.7315 33.0227 98.8115 33.0707C98.8915 33.1107 98.9435 33.1707 98.9675 33.2507C98.9915 33.3227 99.0035 33.4147 99.0035 33.5267V38.8427C99.0035 39.0507 99.0195 39.2187 99.0515 39.3467C99.0915 39.4667 99.1475 39.5587 99.2195 39.6227C99.2995 39.6867 99.4035 39.7267 99.5315 39.7427C99.6595 39.7587 99.8155 39.7667 99.9995 39.7667C100.128 39.7667 100.232 39.7787 100.312 39.8027C100.392 39.8267 100.452 39.8747 100.492 39.9467C100.532 40.0187 100.552 40.1267 100.552 40.2707C100.552 40.4227 100.528 40.5387 100.48 40.6187C100.44 40.6907 100.376 40.7347 100.288 40.7507C100.208 40.7747 100.116 40.7867 100.012 40.7867ZM97.3235 35.1107L98.4755 35.1227L100.144 35.0987C100.256 35.0987 100.352 35.1107 100.432 35.1347C100.512 35.1507 100.572 35.1987 100.612 35.2787C100.66 35.3507 100.684 35.4627 100.684 35.6147C100.684 35.7667 100.664 35.8827 100.624 35.9627C100.584 36.0347 100.524 36.0827 100.444 36.1067C100.364 36.1307 100.268 36.1427 100.156 36.1427L98.5115 36.1187L97.2995 36.1307C97.1315 36.1307 97.0155 36.0907 96.9515 36.0107C96.8955 35.9307 96.8675 35.7987 96.8675 35.6147C96.8675 35.4387 96.9035 35.3107 96.9755 35.2307C97.0475 35.1507 97.1635 35.1107 97.3235 35.1107ZM107.33 40.9067C107.026 40.9067 106.738 40.8707 106.466 40.7987C106.202 40.7267 105.958 40.6307 105.734 40.5107C105.518 40.3827 105.326 40.2427 105.158 40.0907C104.99 39.9387 104.858 39.7867 104.762 39.6347C104.674 39.5067 104.618 39.4027 104.594 39.3227C104.57 39.2347 104.574 39.1507 104.606 39.0707C104.646 38.9907 104.722 38.9027 104.834 38.8067C104.962 38.7107 105.074 38.6667 105.17 38.6747C105.266 38.6747 105.354 38.7107 105.434 38.7827C105.522 38.8547 105.61 38.9507 105.698 39.0707C105.898 39.3427 106.142 39.5427 106.43 39.6707C106.718 39.7907 107.002 39.8507 107.282 39.8507C107.642 39.8507 107.962 39.8027 108.242 39.7067C108.522 39.6107 108.742 39.4667 108.902 39.2747C109.07 39.0747 109.154 38.8187 109.154 38.5067C109.154 38.2507 109.09 38.0347 108.962 37.8587C108.834 37.6827 108.662 37.5347 108.446 37.4147C108.23 37.2867 107.99 37.1787 107.726 37.0907C107.462 36.9947 107.194 36.9027 106.922 36.8147C106.706 36.7427 106.494 36.6627 106.286 36.5747C106.078 36.4787 105.882 36.3747 105.698 36.2627C105.514 36.1427 105.35 36.0027 105.206 35.8427C105.07 35.6827 104.962 35.4947 104.882 35.2787C104.81 35.0627 104.774 34.8107 104.774 34.5227C104.774 34.0827 104.878 33.6947 105.086 33.3587C105.302 33.0227 105.602 32.7627 105.986 32.5787C106.37 32.3867 106.814 32.2907 107.318 32.2907C107.614 32.2907 107.886 32.3187 108.134 32.3747C108.382 32.4307 108.602 32.5067 108.794 32.6027C108.986 32.6907 109.15 32.7867 109.286 32.8907C109.422 32.9867 109.526 33.0787 109.598 33.1667C109.742 33.3187 109.822 33.4467 109.838 33.5507C109.854 33.6547 109.794 33.7827 109.658 33.9347C109.53 34.0787 109.406 34.1547 109.286 34.1627C109.166 34.1707 109.034 34.1147 108.89 33.9947C108.738 33.8187 108.578 33.6827 108.41 33.5867C108.25 33.4907 108.078 33.4267 107.894 33.3947C107.718 33.3547 107.522 33.3347 107.306 33.3347C107.098 33.3347 106.902 33.3627 106.718 33.4187C106.542 33.4667 106.386 33.5427 106.25 33.6467C106.122 33.7507 106.022 33.8787 105.95 34.0307C105.878 34.1747 105.842 34.3427 105.842 34.5347C105.842 34.7507 105.898 34.9347 106.01 35.0867C106.13 35.2387 106.286 35.3707 106.478 35.4827C106.67 35.5867 106.886 35.6827 107.126 35.7707C107.366 35.8507 107.618 35.9307 107.882 36.0107C108.17 36.0987 108.454 36.2067 108.734 36.3347C109.014 36.4547 109.266 36.6067 109.49 36.7907C109.714 36.9667 109.894 37.1907 110.03 37.4627C110.166 37.7347 110.234 38.0707 110.234 38.4707C110.234 38.8707 110.154 39.2227 109.994 39.5267C109.842 39.8307 109.63 40.0867 109.358 40.2947C109.086 40.4947 108.774 40.6467 108.422 40.7507C108.078 40.8547 107.714 40.9067 107.33 40.9067ZM114.215 40.8107C113.799 40.8107 113.407 40.7427 113.039 40.6067C112.679 40.4707 112.359 40.2747 112.079 40.0187C111.807 39.7627 111.591 39.4587 111.431 39.1067C111.279 38.7467 111.203 38.3387 111.203 37.8827C111.203 37.4267 111.279 37.0227 111.431 36.6707C111.591 36.3107 111.807 36.0027 112.079 35.7467C112.351 35.4907 112.667 35.2947 113.027 35.1587C113.395 35.0227 113.783 34.9547 114.191 34.9547C114.463 34.9547 114.731 34.9987 114.995 35.0867C115.259 35.1667 115.491 35.2747 115.691 35.4107C115.899 35.5387 116.047 35.6747 116.135 35.8187C116.215 35.9227 116.271 36.0107 116.303 36.0827C116.343 36.1467 116.347 36.2227 116.315 36.3107C116.283 36.3747 116.239 36.4347 116.183 36.4907C116.127 36.5387 116.071 36.5787 116.015 36.6107C115.871 36.7227 115.727 36.7387 115.583 36.6587C115.495 36.5707 115.395 36.4907 115.283 36.4187C115.179 36.3387 115.067 36.2667 114.947 36.2027C114.827 36.1387 114.703 36.0907 114.575 36.0587C114.455 36.0187 114.327 35.9987 114.191 35.9987C113.815 35.9987 113.483 36.0787 113.195 36.2387C112.907 36.3907 112.683 36.6107 112.523 36.8987C112.371 37.1787 112.295 37.5067 112.295 37.8827C112.295 38.2587 112.371 38.5867 112.523 38.8667C112.683 39.1467 112.903 39.3667 113.183 39.5267C113.471 39.6867 113.799 39.7667 114.167 39.7667C114.335 39.7667 114.495 39.7467 114.647 39.7067C114.807 39.6587 114.955 39.5987 115.091 39.5267C115.227 39.4467 115.339 39.3627 115.427 39.2747C115.507 39.2187 115.575 39.1707 115.631 39.1307C115.687 39.0907 115.755 39.0707 115.835 39.0707C115.899 39.0707 115.967 39.0987 116.039 39.1547C116.111 39.2027 116.187 39.2787 116.267 39.3827C116.331 39.4547 116.367 39.5307 116.375 39.6107C116.391 39.6907 116.379 39.7667 116.339 39.8387C116.299 39.9107 116.235 39.9827 116.147 40.0547C116.019 40.1827 115.847 40.3067 115.631 40.4267C115.423 40.5387 115.195 40.6307 114.947 40.7027C114.699 40.7747 114.455 40.8107 114.215 40.8107ZM117.946 40.7867C117.794 40.7867 117.678 40.7627 117.598 40.7147C117.518 40.6747 117.466 40.6147 117.442 40.5347C117.426 40.4467 117.418 40.3467 117.418 40.2347V32.8427C117.418 32.7307 117.43 32.6347 117.454 32.5547C117.478 32.4747 117.53 32.4147 117.61 32.3747C117.69 32.3267 117.806 32.3027 117.958 32.3027C118.118 32.3027 118.234 32.3267 118.306 32.3747C118.386 32.4147 118.434 32.4747 118.45 32.5547C118.474 32.6347 118.486 32.7347 118.486 32.8547V35.8187C118.678 35.5947 118.91 35.3947 119.182 35.2187C119.462 35.0427 119.802 34.9547 120.202 34.9547C120.674 34.9547 121.094 35.0667 121.462 35.2907C121.838 35.5067 122.134 35.8147 122.35 36.2147C122.574 36.6147 122.686 37.0907 122.686 37.6427V40.2467C122.686 40.3587 122.674 40.4547 122.65 40.5347C122.626 40.6147 122.578 40.6747 122.506 40.7147C122.434 40.7627 122.318 40.7867 122.158 40.7867C122.006 40.7867 121.89 40.7627 121.81 40.7147C121.73 40.6747 121.678 40.6147 121.654 40.5347C121.63 40.4467 121.618 40.3467 121.618 40.2347V37.6307C121.618 37.2947 121.562 37.0027 121.45 36.7547C121.338 36.5067 121.17 36.3147 120.946 36.1787C120.73 36.0427 120.454 35.9747 120.118 35.9747C119.662 35.9747 119.286 36.1067 118.99 36.3707C118.702 36.6267 118.534 36.9707 118.486 37.4027V40.2467C118.486 40.3587 118.474 40.4547 118.45 40.5347C118.426 40.6147 118.374 40.6747 118.294 40.7147C118.222 40.7627 118.106 40.7867 117.946 40.7867ZM126.47 40.8587C126.078 40.8587 125.702 40.7827 125.342 40.6307C124.99 40.4787 124.674 40.2707 124.394 40.0067C124.114 39.7347 123.894 39.4187 123.734 39.0587C123.574 38.6987 123.494 38.3067 123.494 37.8827C123.494 37.4667 123.57 37.0827 123.722 36.7307C123.874 36.3707 124.086 36.0547 124.358 35.7827C124.63 35.5107 124.942 35.2987 125.294 35.1467C125.654 34.9867 126.038 34.9067 126.446 34.9067C126.998 34.9067 127.494 35.0387 127.934 35.3027C128.382 35.5587 128.738 35.9107 129.002 36.3587C129.266 36.8067 129.398 37.3107 129.398 37.8707C129.398 38.3107 129.318 38.7147 129.158 39.0827C128.998 39.4427 128.782 39.7547 128.51 40.0187C128.238 40.2827 127.926 40.4907 127.574 40.6427C127.222 40.7867 126.854 40.8587 126.47 40.8587ZM126.446 39.8147C126.782 39.8147 127.094 39.7307 127.382 39.5627C127.67 39.3947 127.902 39.1627 128.078 38.8667C128.254 38.5707 128.342 38.2347 128.342 37.8587C128.342 37.4827 128.258 37.1507 128.09 36.8627C127.93 36.5747 127.706 36.3507 127.418 36.1907C127.13 36.0307 126.802 35.9507 126.434 35.9507C126.082 35.9507 125.762 36.0347 125.474 36.2027C125.194 36.3707 124.966 36.5987 124.79 36.8867C124.622 37.1747 124.538 37.5027 124.538 37.8707C124.538 38.2547 124.626 38.5947 124.802 38.8907C124.978 39.1787 125.21 39.4067 125.498 39.5747C125.794 39.7347 126.11 39.8147 126.446 39.8147ZM133.185 40.8587C132.793 40.8587 132.417 40.7827 132.057 40.6307C131.705 40.4787 131.389 40.2707 131.109 40.0067C130.829 39.7347 130.609 39.4187 130.449 39.0587C130.289 38.6987 130.209 38.3067 130.209 37.8827C130.209 37.4667 130.285 37.0827 130.437 36.7307C130.589 36.3707 130.801 36.0547 131.073 35.7827C131.345 35.5107 131.657 35.2987 132.009 35.1467C132.369 34.9867 132.753 34.9067 133.161 34.9067C133.713 34.9067 134.209 35.0387 134.649 35.3027C135.097 35.5587 135.453 35.9107 135.717 36.3587C135.981 36.8067 136.113 37.3107 136.113 37.8707C136.113 38.3107 136.033 38.7147 135.873 39.0827C135.713 39.4427 135.497 39.7547 135.225 40.0187C134.953 40.2827 134.641 40.4907 134.289 40.6427C133.937 40.7867 133.569 40.8587 133.185 40.8587ZM133.161 39.8147C133.497 39.8147 133.809 39.7307 134.097 39.5627C134.385 39.3947 134.617 39.1627 134.793 38.8667C134.969 38.5707 135.057 38.2347 135.057 37.8587C135.057 37.4827 134.973 37.1507 134.805 36.8627C134.645 36.5747 134.421 36.3507 134.133 36.1907C133.845 36.0307 133.517 35.9507 133.149 35.9507C132.797 35.9507 132.477 36.0347 132.189 36.2027C131.909 36.3707 131.681 36.5987 131.505 36.8867C131.337 37.1747 131.253 37.5027 131.253 37.8707C131.253 38.2547 131.341 38.5947 131.517 38.8907C131.693 39.1787 131.925 39.4067 132.213 39.5747C132.509 39.7347 132.825 39.8147 133.161 39.8147ZM139.096 40.7867C138.84 40.7867 138.608 40.7627 138.4 40.7147C138.2 40.6747 138.024 40.6067 137.872 40.5107C137.72 40.4147 137.592 40.2907 137.488 40.1387C137.392 39.9867 137.32 39.8027 137.272 39.5867C137.232 39.3707 137.212 39.1187 137.212 38.8307V32.8307C137.212 32.7107 137.22 32.6107 137.236 32.5307C137.26 32.4507 137.312 32.3907 137.392 32.3507C137.472 32.3027 137.584 32.2787 137.728 32.2787C137.888 32.2787 138.004 32.2987 138.076 32.3387C138.156 32.3787 138.208 32.4387 138.232 32.5187C138.256 32.5987 138.268 32.6947 138.268 32.8067V38.8187C138.268 38.9787 138.284 39.1187 138.316 39.2387C138.348 39.3507 138.396 39.4467 138.46 39.5267C138.532 39.6067 138.62 39.6627 138.724 39.6947C138.828 39.7267 138.952 39.7427 139.096 39.7427C139.192 39.7427 139.272 39.7547 139.336 39.7787C139.408 39.8027 139.464 39.8507 139.504 39.9227C139.544 39.9947 139.564 40.1067 139.564 40.2587C139.564 40.4187 139.544 40.5387 139.504 40.6187C139.464 40.6907 139.408 40.7347 139.336 40.7507C139.272 40.7747 139.192 40.7867 139.096 40.7867Z" fill="#00BBAE"/>
<path d="M34.0735 48.4016C34.0735 48.3973 34.0735 48.3888 34.0735 48.3845C34.0735 48.3931 34.0777 48.4016 34.0777 48.4101C34.0777 48.3973 34.0777 48.3888 34.0735 48.376C33.9976 46.2327 33.6519 14.5372 33.6983 11.1776C33.6983 7.97526 30.3681 4.40724 24.3442 2.93155C17.0009 1.1284 8.99998 3.5652 9.00841 3.55244C9.53956 14.8136 11.8833 25.9302 16.044 36.9065C15.9681 36.9277 21.2374 35.7668 26.2285 37.2042C33.0575 39.1987 33.9259 46.9131 34.0566 48.2867C33.8248 46.9089 31.8477 39.1774 24.9428 38.5523C18.1306 37.9144 15.4285 39.305 15.4791 39.3008C10.918 29.0432 8.12317 18.6751 7.09038 8.20916C5.99858 8.48984 4.90678 8.77477 3.8192 9.06396C5.1302 20.1168 8.74705 31.093 14.6698 41.997C14.5686 42.014 17.8356 39.7686 24.947 39.9769C31.696 40.1811 33.8332 47.1768 34.0566 48.3335C34.0566 48.3505 34.0608 48.3718 34.0608 48.3845C33.7067 46.9939 31.7508 41.8736 24.6351 41.6057C17.7386 41.3591 14.8721 44.0383 15.0112 44.0128C8.99998 33.9891 5.04168 23.9229 3.15315 13.81C2.09929 14.0694 1.04543 14.3246 0 14.584C2.30163 25.1477 7.22528 35.7115 14.7667 46.2795C14.4253 46.373 18.118 42.4478 25.103 42.7497C31.97 43.1537 33.7573 47.3809 34.0777 48.4739C34.0777 48.4781 34.0777 48.4781 34.0777 48.4781C34.0777 48.4781 34.0777 48.4781 34.0777 48.4739C34.0777 48.4781 34.0819 48.4824 34.0819 48.4866C34.0861 48.4781 34.0819 48.4568 34.0777 48.4186C34.0777 48.4143 34.0735 48.4101 34.0735 48.4016ZM34.0777 48.4228C34.0777 48.4186 34.0777 48.4143 34.0777 48.4101C34.0777 48.4143 34.0777 48.4143 34.0777 48.4228C34.0777 48.4186 34.0777 48.4186 34.0777 48.4228ZM34.0819 48.4951V48.4909C34.0819 48.4866 34.0819 48.4951 34.0819 48.4951ZM34.0819 48.4866C34.1283 48.6397 34.1409 48.729 34.1325 48.729C34.1409 48.729 34.124 48.6142 34.0777 48.4186C34.0819 48.4611 34.0861 48.4824 34.0819 48.4866ZM35.0599 48.3888C35.0557 48.3973 35.0557 48.4058 35.0557 48.4143V48.4058C35.0599 48.4016 35.0599 48.3973 35.0599 48.3888ZM35.0557 48.4951V48.4866C35.0557 48.4866 35.0514 48.4951 35.0557 48.4951ZM69.1333 14.584C68.0837 14.3246 67.034 14.0651 65.9802 13.81C64.0917 23.9229 60.1334 33.9891 54.1137 44.0128C54.2528 44.0383 51.3863 41.3591 44.4898 41.6057C37.3826 41.8694 35.4266 46.9897 35.0683 48.3803C35.0683 48.3633 35.0725 48.3463 35.0725 48.3293C35.2959 47.1725 37.4332 40.1726 44.1821 39.9727C51.2978 39.7686 54.5226 42.0863 54.4172 42.0693C60.3652 31.1398 63.9947 20.138 65.3099 9.06396C64.2223 8.77477 63.1305 8.48984 62.0387 8.20916C61.006 18.6751 58.2111 29.0432 53.65 39.3008C53.7174 39.3093 50.5474 37.774 44.1863 38.5523C37.2013 39.3901 35.2791 47.0747 35.0725 48.325C35.1906 47.0662 36.0084 39.2242 42.9006 37.2084C47.8959 35.771 53.161 36.932 53.0893 36.9107C57.25 25.9387 59.5938 14.8179 60.1249 3.55669C60.1376 3.56945 52.1324 1.13265 44.7933 2.9358C38.7695 4.40298 35.4351 7.97101 35.4351 11.1776C35.4772 14.5415 35.1315 46.322 35.0599 48.3888C35.0599 48.3803 35.0641 48.3718 35.0641 48.3633C35.0641 48.3718 35.0599 48.3846 35.0599 48.3931C35.0599 48.3973 35.0599 48.4016 35.0599 48.4058C35.0599 48.4058 35.0599 48.4101 35.0599 48.4143C35.0557 48.4568 35.0514 48.4824 35.0557 48.4909C35.0557 48.4866 35.0599 48.4824 35.0599 48.4781V48.4824C35.0599 48.4781 35.0599 48.4781 35.0599 48.4739C35.3803 47.3767 37.1718 43.1537 44.0346 42.754C51.0196 42.452 54.7081 46.373 54.3708 46.2837C61.9081 35.7115 66.8317 25.1477 69.1333 14.584ZM35.0009 48.7333C34.9966 48.729 35.0093 48.644 35.0514 48.4866C35.0472 48.4781 35.0514 48.4568 35.0557 48.4186C35.0093 48.6142 34.9924 48.729 35.0009 48.7333Z" fill="#FF9B24"/>
</svg>
